<?xml version="1.0" standalone="no"?>
<!DOCTYPE svg PUBLIC "-//W3C//DTD SVG 20010904//EN"
 "http://www.w3.org/TR/2001/REC-SVG-20010904/DTD/svg10.dtd">
<svg version="1.0" xmlns="http://www.w3.org/2000/svg"
 width="704.000000pt" height="704.000000pt" viewBox="0 0 704.000000 704.000000"
 preserveAspectRatio="xMidYMid meet">
<metadata>
Created by potrace 1.11, written by Peter Selinger 2001-2013
</metadata>
<g transform="translate(0.000000,704.000000) scale(0.100000,-0.100000)"
fill="#000000" stroke="none">
<path d="M3298 6915 c-2 -1 -40 -6 -84 -9 -45 -4 -93 -9 -105 -11 -13 -2 -44
-6 -69 -9 -25 -3 -54 -8 -65 -10 -11 -2 -38 -7 -60 -11 -22 -4 -51 -9 -65 -11
-222 -39 -557 -151 -803 -268 -121 -58 -302 -159 -328 -182 -8 -8 -18 -12 -21
-9 -3 3 -13 -4 -23 -15 -10 -11 -24 -20 -32 -20 -7 0 -13 -4 -13 -10 0 -5 -7
-10 -15 -10 -8 0 -15 -4 -15 -10 0 -5 -5 -10 -10 -10 -6 0 -16 -5 -23 -10 -7
-6 -43 -34 -82 -62 -38 -29 -71 -55 -73 -60 -2 -4 -10 -8 -17 -8 -7 0 -15 -4
-17 -8 -1 -5 -34 -35 -73 -67 -38 -32 -110 -97 -158 -144 -48 -47 -92 -87 -97
-89 -6 -2 -10 -7 -10 -11 0 -5 -22 -32 -50 -61 -27 -29 -50 -57 -50 -62 0 -5
-5 -6 -10 -3 -6 3 -10 1 -10 -4 0 -10 -26 -44 -62 -83 -10 -10 -18 -22 -18
-27 0 -5 -4 -11 -8 -13 -16 -7 -222 -296 -222 -312 0 -3 -13 -24 -29 -48 -110
-165 -286 -574 -352 -818 -7 -25 -14 -49 -15 -55 -5 -18 -46 -189 -49 -210
-48 -261 -60 -393 -60 -655 0 -209 7 -344 25 -460 5 -36 12 -83 15 -105 3 -22
8 -47 10 -55 3 -8 7 -33 10 -55 4 -22 11 -58 17 -80 5 -22 11 -47 13 -55 2 -8
10 -42 19 -75 9 -33 18 -67 20 -75 29 -117 168 -478 190 -492 6 -4 8 -8 4 -8
-7 0 75 -164 122 -245 13 -22 28 -49 34 -60 35 -63 207 -312 250 -362 6 -7 16
-18 21 -25 106 -138 301 -339 456 -468 23 -19 50 -43 60 -52 11 -10 21 -18 24
-18 3 0 16 -10 31 -22 33 -30 252 -183 284 -200 14 -7 27 -15 30 -18 5 -5 26
-17 105 -62 81 -45 317 -160 355 -173 3 -1 16 -6 30 -12 14 -6 42 -18 63 -26
20 -9 37 -13 37 -10 0 3 6 1 13 -5 15 -12 278 -94 372 -116 164 -37 250 -53
325 -61 30 -4 62 -8 70 -10 102 -26 676 -26 817 -1 10 2 45 7 78 11 178 21
580 123 715 182 8 3 17 7 20 8 3 1 18 7 33 13 16 7 31 12 34 12 22 0 416 197
421 211 2 5 9 9 16 9 7 0 32 14 54 30 23 17 42 28 42 25 0 -3 25 13 55 35 30
22 59 40 65 40 5 0 10 5 10 10 0 6 5 10 11 10 6 0 16 6 24 13 7 6 25 21 41 32
23 17 77 57 109 83 74 57 258 225 322 292 12 14 46 49 73 78 28 28 50 54 50
57 0 3 8 13 18 23 40 41 182 222 182 231 0 4 8 16 18 27 20 22 99 144 164 254
73 124 214 420 200 420 -4 0 -2 4 4 8 11 7 109 283 119 332 2 13 9 37 15 55
12 36 14 42 34 136 19 82 23 103 41 209 32 190 40 294 40 540 0 227 -7 348
-30 495 -3 17 -7 48 -10 70 -5 34 -37 188 -51 248 -2 9 -6 25 -8 35 -12 52
-59 208 -85 282 -34 96 -52 142 -102 260 -34 80 -159 322 -175 341 -8 8 -14
23 -14 32 0 9 -5 17 -10 17 -6 0 -14 8 -17 18 -12 32 -146 228 -225 327 -121
152 -256 295 -402 427 -22 21 -53 49 -68 63 -15 14 -32 25 -37 25 -6 0 -11 4
-11 9 0 16 -356 271 -380 271 -5 0 -10 4 -10 9 0 5 -8 11 -17 15 -10 3 -40 19
-68 36 -57 35 -291 151 -302 151 -4 0 -17 6 -29 13 -57 38 -490 182 -604 201
-19 3 -42 8 -50 10 -8 2 -31 7 -50 10 -19 3 -43 8 -52 11 -9 3 -32 7 -50 9
-106 14 -198 26 -233 31 -40 6 -541 15 -547 9z"/>
</g>
</svg>
